<svg xmlns="http://www.w3.org/2000/svg" xmlns:xlink="http://www.w3.org/1999/xlink" width="551" zoomAndPan="magnify" viewBox="0 0 413.25 475.499999" height="634" preserveAspectRatio="xMidYMid meet" version="1.0"><defs><filter x="0%" y="0%" width="100%" height="100%" id="1b3b086c06"><feColorMatrix values="0 0 0 0 1 0 0 0 0 1 0 0 0 0 1 0 0 0 1 0" color-interpolation-filters="sRGB"/></filter><clipPath id="cb2de3aac1"><path d="M 0 0.179688 L 412.5 0.179688 L 412.5 474.820312 L 0 474.820312 Z M 0 0.179688 " clip-rule="nonzero"/></clipPath><mask id="136f38eef6"><g filter="url(#1b3b086c06)"><rect x="-41.325" width="495.9" fill="#000000" y="-47.55" height="570.599999" fill-opacity="0.08"/></g></mask><clipPath id="53cbed57f9"><path d="M 1 4 L 411.753906 4 L 411.753906 474.070312 L 1 474.070312 Z M 1 4 " clip-rule="nonzero"/></clipPath><clipPath id="9d1eee711a"><rect x="0" width="413" y="0" height="475"/></clipPath></defs><g clip-path="url(#cb2de3aac1)"><g mask="url(#136f38eef6)"><g transform="matrix(1, 0, 0, 1, 0, 0.000000000000024286)"><g clip-path="url(#9d1eee711a)"><g clip-path="url(#53cbed57f9)"><path fill="#877d92" d="M 278.21875 245.558594 C 267.042969 245.210938 257.253906 258.269531 252.445312 269.367188 C 250.628906 273.574219 249.039062 277.960938 247.355469 282.617188 C 242.976562 294.730469 238.453125 307.265625 229.214844 317.875 C 212.042969 337.585938 181.488281 344.917969 153.179688 336.070312 C 136.855469 330.976562 121.53125 321.308594 106.710938 306.6875 C 77.910156 328.902344 40.796875 336.648438 9.074219 325.859375 C 3.101562 323.828125 -0.09375 317.335938 1.9375 311.363281 C 3.972656 305.390625 10.464844 302.203125 16.433594 304.226562 C 40.042969 312.28125 68.808594 306.222656 91.375 289.570312 C 36.601562 221.238281 22.289062 121.496094 55.835938 40.574219 C 60.652344 28.953125 68.945312 12.84375 85.25 7.046875 C 104.832031 0.0820312 124.316406 11.625 134.144531 25.296875 C 143.777344 38.695312 146.878906 54.496094 149.613281 68.433594 C 156.824219 105.167969 164.273438 143.144531 162.765625 181.929688 C 161.566406 212.898438 153.738281 256.820312 123.410156 291.054688 C 135.363281 302.695312 147.4375 310.335938 159.980469 314.25 C 179.480469 320.328125 200.847656 315.644531 211.988281 302.855469 C 218.414062 295.46875 222.035156 285.453125 225.867188 274.839844 C 227.597656 270.066406 229.382812 265.128906 231.480469 260.277344 C 241.699219 236.695312 259.046875 222.691406 277.972656 222.691406 C 278.171875 222.691406 278.375 222.699219 278.570312 222.699219 C 303.164062 223.0625 319.484375 246.273438 322.347656 267.9375 C 324.332031 282.90625 321.566406 297.164062 318.894531 310.957031 C 318.101562 315.023438 317.316406 319.089844 316.664062 323.148438 C 313.664062 341.851562 315.683594 355.683594 322.664062 364.273438 C 329.222656 372.339844 341.273438 376.796875 354.925781 376.160156 C 368.714844 375.539062 382.632812 370.363281 396.097656 365.347656 C 399.742188 363.976562 403.828125 364.582031 406.941406 366.917969 C 410.050781 369.257812 411.761719 373.015625 411.476562 376.894531 L 405.105469 463.488281 C 404.664062 469.503906 399.652344 474.085938 393.722656 474.085938 C 393.441406 474.085938 393.160156 474.078125 392.871094 474.050781 C 386.574219 473.597656 381.851562 468.113281 382.316406 461.820312 L 387.398438 392.683594 C 377.480469 395.894531 366.917969 398.496094 355.953125 398.996094 C 335.101562 399.898438 316.042969 392.359375 304.9375 378.699219 C 293.660156 364.847656 290.011719 344.933594 294.09375 319.53125 C 294.78125 315.226562 295.617188 310.921875 296.449219 306.609375 C 298.886719 294.074219 301.183594 282.21875 299.6875 270.941406 C 298.09375 258.867188 289.429688 245.722656 278.21875 245.558594 Z M 139.929688 181.054688 C 141.332031 144.929688 134.136719 108.285156 127.191406 72.84375 C 124.792969 60.625 122.3125 47.992188 115.585938 38.640625 C 111.441406 32.875 104.15625 27.851562 97.246094 27.851562 C 95.765625 27.851562 94.308594 28.078125 92.902344 28.585938 C 85.171875 31.328125 80.089844 41.742188 76.941406 49.332031 C 46.734375 122.203125 59.300781 211.898438 108.074219 273.855469 C 127.207031 251.074219 138.484375 218.308594 139.929688 181.054688 Z M 139.929688 181.054688 " fill-opacity="1" fill-rule="nonzero"/></g></g></g></g></g></svg>