<svg xmlns="http://www.w3.org/2000/svg" xmlns:xlink="http://www.w3.org/1999/xlink" width="55" zoomAndPan="magnify" viewBox="0 0 41.25 29.25" height="39" preserveAspectRatio="xMidYMid meet" version="1.0"><defs><clipPath id="3a052d59db"><path d="M 0.148438 0 L 40.367188 0 L 40.367188 28.519531 L 0.148438 28.519531 Z M 0.148438 0 " clip-rule="nonzero"/></clipPath><clipPath id="9e2b668188"><path d="M 0.148438 0 L 40.367188 0 L 40.367188 28.519531 L 0.148438 28.519531 Z M 0.148438 0 " clip-rule="nonzero"/></clipPath></defs><g clip-path="url(#3a052d59db)"><path fill="#80b1e4" d="M 40.339844 26.496094 L 40.339844 2.015625 C 40.339844 1.75 40.289062 1.492188 40.1875 1.246094 C 40.085938 0.996094 39.941406 0.78125 39.753906 0.589844 C 39.566406 0.402344 39.347656 0.253906 39.101562 0.152344 C 38.855469 0.0507812 38.601562 0 38.335938 0 L 2.195312 0 C 1.929688 0 1.671875 0.0507812 1.425781 0.152344 C 1.179688 0.253906 0.964844 0.402344 0.777344 0.589844 C 0.585938 0.78125 0.441406 0.996094 0.339844 1.246094 C 0.238281 1.492188 0.1875 1.75 0.1875 2.015625 L 0.1875 26.496094 C 0.1875 26.765625 0.238281 27.019531 0.339844 27.269531 C 0.441406 27.515625 0.585938 27.734375 0.777344 27.921875 C 0.964844 28.109375 1.179688 28.257812 1.425781 28.359375 C 1.671875 28.460938 1.929688 28.511719 2.195312 28.511719 L 38.335938 28.511719 C 38.601562 28.511719 38.855469 28.460938 39.101562 28.359375 C 39.347656 28.257812 39.566406 28.109375 39.753906 27.921875 C 39.941406 27.734375 40.085938 27.515625 40.1875 27.269531 C 40.289062 27.019531 40.339844 26.765625 40.339844 26.496094 Z M 40.339844 26.496094 " fill-opacity="1" fill-rule="nonzero"/></g><path fill="#f0f1f3" d="M 37.824219 2.53125 L 37.824219 25.984375 L 2.707031 25.984375 L 2.707031 2.53125 Z M 37.824219 2.53125 " fill-opacity="1" fill-rule="nonzero"/><g clip-path="url(#9e2b668188)"><path fill="#80b1e4" d="M 2.195312 0 C 1.082031 0 0.1875 0.898438 0.1875 2.015625 L 0.1875 6.578125 C 0.617188 6.578125 1.042969 6.535156 1.464844 6.449219 C 1.886719 6.367188 2.296875 6.242188 2.695312 6.074219 C 3.089844 5.910156 3.46875 5.707031 3.824219 5.46875 C 4.183594 5.226562 4.515625 4.957031 4.816406 4.648438 C 5.121094 4.34375 5.394531 4.011719 5.632812 3.652344 C 5.871094 3.292969 6.074219 2.914062 6.238281 2.515625 C 6.402344 2.117188 6.527344 1.707031 6.609375 1.285156 C 6.695312 0.859375 6.738281 0.433594 6.738281 0 Z M 33.792969 0 C 33.792969 0.433594 33.835938 0.859375 33.917969 1.285156 C 34.003906 1.707031 34.128906 2.117188 34.292969 2.515625 C 34.457031 2.914062 34.65625 3.292969 34.898438 3.652344 C 35.136719 4.011719 35.40625 4.34375 35.710938 4.648438 C 36.015625 4.957031 36.347656 5.226562 36.703125 5.46875 C 37.0625 5.707031 37.4375 5.910156 37.835938 6.074219 C 38.234375 6.242188 38.640625 6.367188 39.0625 6.449219 C 39.484375 6.535156 39.910156 6.578125 40.34375 6.578125 L 40.34375 2.015625 C 40.34375 0.898438 39.445312 0 38.335938 0 Z M 0.1875 21.9375 L 0.1875 26.496094 C 0.1875 27.613281 1.082031 28.511719 2.195312 28.511719 L 6.738281 28.511719 C 6.738281 28.082031 6.695312 27.652344 6.609375 27.230469 C 6.527344 26.804688 6.402344 26.394531 6.238281 25.996094 C 6.074219 25.597656 5.871094 25.21875 5.632812 24.859375 C 5.394531 24.5 5.121094 24.167969 4.816406 23.863281 C 4.515625 23.558594 4.183594 23.285156 3.824219 23.042969 C 3.46875 22.804688 3.089844 22.601562 2.695312 22.4375 C 2.296875 22.273438 1.886719 22.148438 1.464844 22.0625 C 1.042969 21.976562 0.617188 21.9375 0.1875 21.9375 Z M 40.300781 21.9375 C 39.871094 21.9375 39.445312 21.984375 39.027344 22.070312 C 38.609375 22.15625 38.199219 22.28125 37.804688 22.449219 C 37.410156 22.617188 37.035156 22.820312 36.679688 23.058594 C 36.328125 23.300781 35.996094 23.574219 35.695312 23.878906 C 35.394531 24.183594 35.125 24.515625 34.886719 24.871094 C 34.652344 25.230469 34.449219 25.609375 34.289062 26.003906 C 34.125 26.402344 34 26.8125 33.917969 27.234375 C 33.835938 27.65625 33.792969 28.082031 33.792969 28.511719 L 38.335938 28.511719 C 39.445312 28.511719 40.34375 27.613281 40.34375 26.496094 L 40.34375 21.9375 C 40.328125 21.9375 40.3125 21.9375 40.300781 21.9375 Z M 40.300781 21.9375 " fill-opacity="1" fill-rule="nonzero"/></g><path fill="#ff5340" d="M 21.015625 22.105469 L 20.371094 22.476562 C 20.203125 22.574219 20.09375 22.71875 20.046875 22.90625 C 19.996094 23.09375 20.019531 23.273438 20.117188 23.441406 L 22.125 26.941406 C 22.164062 27.003906 22.21875 27.035156 22.292969 27.027344 C 22.363281 27.019531 22.414062 26.980469 22.4375 26.914062 L 22.734375 26.078125 C 22.769531 25.980469 22.839844 25.941406 22.941406 25.957031 L 23.808594 26.117188 C 23.878906 26.132812 23.9375 26.109375 23.980469 26.046875 C 24.023438 25.988281 24.023438 25.925781 23.988281 25.863281 L 21.976562 22.363281 C 21.878906 22.195312 21.738281 22.085938 21.550781 22.035156 C 21.363281 21.984375 21.183594 22.007812 21.015625 22.105469 Z M 21.015625 22.105469 " fill-opacity="1" fill-rule="nonzero"/><path fill="#ff5340" d="M 19.574219 22.140625 L 20.21875 22.511719 C 20.386719 22.609375 20.496094 22.753906 20.546875 22.941406 C 20.597656 23.128906 20.574219 23.308594 20.476562 23.476562 L 18.464844 26.976562 C 18.429688 27.039062 18.375 27.070312 18.300781 27.0625 C 18.226562 27.054688 18.179688 27.019531 18.152344 26.949219 L 17.855469 26.113281 C 17.820312 26.015625 17.753906 25.976562 17.648438 25.996094 L 16.78125 26.152344 C 16.710938 26.167969 16.652344 26.144531 16.609375 26.082031 C 16.570312 26.023438 16.566406 25.960938 16.601562 25.898438 L 18.613281 22.398438 C 18.710938 22.230469 18.851562 22.121094 19.039062 22.070312 C 19.226562 22.019531 19.40625 22.042969 19.574219 22.140625 Z M 19.574219 22.140625 " fill-opacity="1" fill-rule="nonzero"/><path fill="#ffdb2a" d="M 16.507812 19.675781 C 16.507812 20.175781 16.605469 20.65625 16.792969 21.121094 C 16.984375 21.582031 17.257812 21.988281 17.609375 22.34375 C 17.960938 22.695312 18.367188 22.96875 18.828125 23.160156 C 19.289062 23.351562 19.765625 23.449219 20.265625 23.449219 C 20.761719 23.449219 21.242188 23.351562 21.703125 23.160156 C 22.164062 22.96875 22.570312 22.695312 22.921875 22.34375 C 23.273438 21.988281 23.542969 21.582031 23.734375 21.121094 C 23.925781 20.65625 24.019531 20.175781 24.019531 19.675781 C 24.019531 19.175781 23.925781 18.695312 23.734375 18.234375 C 23.542969 17.769531 23.273438 17.363281 22.921875 17.007812 C 22.570312 16.65625 22.164062 16.382812 21.703125 16.191406 C 21.242188 16 20.761719 15.902344 20.265625 15.902344 C 19.765625 15.902344 19.289062 16 18.828125 16.191406 C 18.367188 16.382812 17.960938 16.65625 17.609375 17.007812 C 17.257812 17.363281 16.984375 17.769531 16.792969 18.234375 C 16.605469 18.695312 16.507812 19.175781 16.507812 19.675781 Z M 16.507812 19.675781 " fill-opacity="1" fill-rule="nonzero"/><path fill="#f0a315" d="M 17.042969 19.675781 C 17.042969 20.105469 17.125 20.519531 17.289062 20.914062 C 17.453125 21.3125 17.683594 21.660156 17.984375 21.964844 C 18.289062 22.269531 18.636719 22.5 19.03125 22.664062 C 19.425781 22.832031 19.835938 22.914062 20.265625 22.914062 C 20.691406 22.914062 21.101562 22.832031 21.496094 22.664062 C 21.894531 22.5 22.242188 22.269531 22.542969 21.964844 C 22.84375 21.660156 23.078125 21.3125 23.242188 20.914062 C 23.40625 20.519531 23.488281 20.105469 23.488281 19.675781 C 23.488281 19.246094 23.40625 18.835938 23.242188 18.4375 C 23.078125 18.042969 22.84375 17.691406 22.542969 17.386719 C 22.242188 17.085938 21.894531 16.851562 21.496094 16.6875 C 21.101562 16.523438 20.691406 16.441406 20.265625 16.441406 C 19.835938 16.441406 19.425781 16.523438 19.03125 16.6875 C 18.636719 16.851562 18.289062 17.085938 17.984375 17.386719 C 17.683594 17.691406 17.453125 18.042969 17.289062 18.4375 C 17.125 18.835938 17.042969 19.246094 17.042969 19.675781 Z M 17.042969 19.675781 " fill-opacity="1" fill-rule="nonzero"/><path fill="#ffdb2a" d="M 19.273438 21.363281 L 20.152344 20.894531 C 20.226562 20.855469 20.300781 20.855469 20.375 20.894531 L 21.257812 21.363281 C 21.308594 21.390625 21.359375 21.386719 21.40625 21.351562 C 21.453125 21.316406 21.472656 21.269531 21.464844 21.210938 L 21.296875 20.226562 C 21.28125 20.144531 21.304688 20.070312 21.363281 20.011719 L 22.078125 19.316406 C 22.121094 19.273438 22.132812 19.226562 22.113281 19.167969 C 22.09375 19.113281 22.058594 19.082031 22 19.070312 L 21.011719 18.925781 C 20.929688 18.914062 20.871094 18.871094 20.832031 18.796875 L 20.390625 17.898438 C 20.367188 17.847656 20.324219 17.820312 20.265625 17.820312 C 20.207031 17.820312 20.164062 17.847656 20.136719 17.898438 L 19.695312 18.796875 C 19.660156 18.871094 19.601562 18.914062 19.515625 18.925781 L 18.53125 19.070312 C 18.472656 19.082031 18.433594 19.113281 18.417969 19.167969 C 18.398438 19.226562 18.410156 19.273438 18.453125 19.316406 L 19.164062 20.011719 C 19.226562 20.070312 19.25 20.144531 19.234375 20.226562 L 19.066406 21.210938 C 19.054688 21.269531 19.074219 21.316406 19.121094 21.351562 C 19.171875 21.386719 19.21875 21.390625 19.273438 21.363281 Z M 19.273438 21.363281 " fill-opacity="1" fill-rule="nonzero"/><path fill="#c6cdd7" d="M 10.5 5.585938 L 30.03125 5.585938 C 30.191406 5.585938 30.347656 5.617188 30.496094 5.679688 C 30.648438 5.742188 30.777344 5.832031 30.894531 5.945312 C 31.007812 6.058594 31.097656 6.191406 31.15625 6.34375 C 31.21875 6.492188 31.25 6.648438 31.25 6.8125 L 31.25 8.324219 C 31.25 8.484375 31.21875 8.640625 31.15625 8.792969 C 31.097656 8.941406 31.007812 9.074219 30.894531 9.1875 C 30.777344 9.304688 30.648438 9.390625 30.496094 9.453125 C 30.347656 9.515625 30.191406 9.546875 30.03125 9.546875 L 10.5 9.546875 C 10.335938 9.546875 10.179688 9.515625 10.03125 9.453125 C 9.882812 9.390625 9.75 9.304688 9.636719 9.1875 C 9.523438 9.074219 9.433594 8.941406 9.371094 8.792969 C 9.308594 8.640625 9.277344 8.484375 9.277344 8.324219 L 9.277344 6.8125 C 9.277344 6.648438 9.308594 6.492188 9.371094 6.34375 C 9.433594 6.191406 9.523438 6.058594 9.636719 5.945312 C 9.75 5.832031 9.882812 5.742188 10.03125 5.679688 C 10.179688 5.617188 10.335938 5.585938 10.5 5.585938 Z M 10.5 5.585938 " fill-opacity="1" fill-rule="nonzero"/><path fill="#c6cdd7" d="M 9.695312 10.613281 L 30.835938 10.613281 C 30.949219 10.613281 31.046875 10.65625 31.128906 10.738281 C 31.210938 10.816406 31.25 10.917969 31.25 11.03125 L 31.25 11.546875 C 31.25 11.664062 31.210938 11.761719 31.128906 11.84375 C 31.046875 11.925781 30.949219 11.964844 30.835938 11.964844 L 9.695312 11.964844 C 9.578125 11.964844 9.480469 11.925781 9.402344 11.84375 C 9.320312 11.761719 9.277344 11.664062 9.277344 11.546875 L 9.277344 11.03125 C 9.277344 10.917969 9.320312 10.816406 9.402344 10.738281 C 9.480469 10.65625 9.578125 10.613281 9.695312 10.613281 Z M 9.695312 10.613281 " fill-opacity="1" fill-rule="nonzero"/><path fill="#c6cdd7" d="M 9.53125 21.203125 L 15.160156 21.203125 C 15.230469 21.203125 15.289062 21.226562 15.339844 21.277344 C 15.390625 21.328125 15.414062 21.386719 15.414062 21.457031 L 15.414062 21.769531 C 15.414062 21.839844 15.390625 21.898438 15.339844 21.949219 C 15.289062 22 15.230469 22.023438 15.160156 22.023438 L 9.53125 22.023438 C 9.460938 22.023438 9.402344 22 9.351562 21.949219 C 9.304688 21.898438 9.277344 21.839844 9.277344 21.769531 L 9.277344 21.457031 C 9.277344 21.386719 9.304688 21.328125 9.351562 21.277344 C 9.402344 21.226562 9.460938 21.203125 9.53125 21.203125 Z M 9.53125 21.203125 " fill-opacity="1" fill-rule="nonzero"/><path fill="#c6cdd7" d="M 25.367188 21.203125 L 31 21.203125 C 31.066406 21.203125 31.128906 21.226562 31.175781 21.277344 C 31.226562 21.328125 31.25 21.386719 31.25 21.457031 L 31.25 21.769531 C 31.25 21.839844 31.226562 21.898438 31.175781 21.949219 C 31.128906 22 31.066406 22.023438 31 22.023438 L 25.367188 22.023438 C 25.296875 22.023438 25.238281 22 25.191406 21.949219 C 25.140625 21.898438 25.117188 21.839844 25.117188 21.769531 L 25.117188 21.457031 C 25.117188 21.386719 25.140625 21.328125 25.191406 21.277344 C 25.238281 21.226562 25.296875 21.203125 25.367188 21.203125 Z M 25.367188 21.203125 " fill-opacity="1" fill-rule="nonzero"/><path fill="#c6cdd7" d="M 13.78125 13.03125 L 26.746094 13.03125 C 26.863281 13.03125 26.960938 13.074219 27.042969 13.15625 C 27.121094 13.234375 27.164062 13.335938 27.164062 13.449219 L 27.164062 13.964844 C 27.164062 14.082031 27.121094 14.179688 27.042969 14.261719 C 26.960938 14.34375 26.863281 14.382812 26.746094 14.382812 L 13.78125 14.382812 C 13.667969 14.382812 13.570312 14.34375 13.488281 14.261719 C 13.40625 14.179688 13.367188 14.082031 13.367188 13.964844 L 13.367188 13.449219 C 13.367188 13.335938 13.40625 13.234375 13.488281 13.15625 C 13.570312 13.074219 13.667969 13.03125 13.78125 13.03125 Z M 13.78125 13.03125 " fill-opacity="1" fill-rule="nonzero"/></svg>