<svg xmlns="http://www.w3.org/2000/svg" xmlns:xlink="http://www.w3.org/1999/xlink" width="20" zoomAndPan="magnify" viewBox="0 0 17.25 20.249999" height="27" preserveAspectRatio="xMidYMid meet" version="1.0"><defs><clipPath id="99a9ca7ffe"><path d="M 0.828125 0.0625 L 15.203125 0.0625 L 15.203125 19.46875 L 0.828125 19.46875 Z M 0.828125 0.0625 " clip-rule="nonzero"/></clipPath></defs><g clip-path="url(#99a9ca7ffe)"><path fill="#000000" d="M 14.199219 2.320312 L 11.625 2.320312 L 11.625 1.125 C 11.625 0.988281 11.597656 0.855469 11.546875 0.726562 C 11.492188 0.601562 11.417969 0.488281 11.324219 0.390625 C 11.226562 0.292969 11.117188 0.21875 10.992188 0.167969 C 10.867188 0.113281 10.734375 0.0859375 10.597656 0.0859375 L 5.46875 0.0859375 C 5.332031 0.0859375 5.203125 0.113281 5.074219 0.167969 C 4.949219 0.21875 4.839844 0.292969 4.742188 0.390625 C 4.648438 0.488281 4.574219 0.601562 4.523438 0.726562 C 4.46875 0.855469 4.445312 0.988281 4.441406 1.125 L 4.441406 2.320312 L 1.867188 2.320312 C 1.730469 2.320312 1.601562 2.347656 1.476562 2.402344 C 1.351562 2.453125 1.238281 2.527344 1.144531 2.625 C 1.046875 2.722656 0.972656 2.835938 0.921875 2.960938 C 0.867188 3.089844 0.84375 3.222656 0.84375 3.359375 L 0.84375 4.117188 C 0.847656 4.277344 0.882812 4.425781 0.953125 4.570312 C 1.023438 4.710938 1.117188 4.832031 1.238281 4.929688 C 1.359375 5.03125 1.496094 5.101562 1.648438 5.140625 C 1.800781 5.179688 1.953125 5.183594 2.105469 5.15625 L 2.710938 17.800781 C 2.71875 18.019531 2.769531 18.234375 2.863281 18.433594 C 2.953125 18.636719 3.078125 18.8125 3.238281 18.96875 C 3.394531 19.121094 3.578125 19.238281 3.78125 19.320312 C 3.984375 19.402344 4.195312 19.445312 4.414062 19.445312 L 11.652344 19.445312 C 11.871094 19.445312 12.082031 19.402344 12.285156 19.320312 C 12.488281 19.238281 12.671875 19.121094 12.828125 18.96875 C 12.988281 18.8125 13.113281 18.636719 13.203125 18.433594 C 13.296875 18.234375 13.347656 18.019531 13.355469 17.800781 L 13.960938 5.15625 C 14.113281 5.183594 14.265625 5.179688 14.417969 5.140625 C 14.570312 5.101562 14.707031 5.03125 14.828125 4.929688 C 14.949219 4.832031 15.042969 4.710938 15.113281 4.570312 C 15.183594 4.425781 15.21875 4.277344 15.222656 4.117188 L 15.222656 3.359375 C 15.222656 3.222656 15.199219 3.089844 15.144531 2.960938 C 15.09375 2.835938 15.019531 2.722656 14.921875 2.625 C 14.828125 2.527344 14.71875 2.453125 14.589844 2.402344 C 14.464844 2.347656 14.335938 2.320312 14.199219 2.320312 Z M 5.125 1.125 C 5.125 1.027344 5.160156 0.949219 5.226562 0.878906 C 5.292969 0.8125 5.375 0.777344 5.46875 0.777344 L 10.597656 0.777344 C 10.695312 0.777344 10.773438 0.8125 10.839844 0.878906 C 10.90625 0.949219 10.941406 1.027344 10.941406 1.125 L 10.941406 2.320312 L 5.125 2.320312 Z M 12.675781 17.765625 C 12.660156 18.042969 12.554688 18.277344 12.359375 18.464844 C 12.160156 18.65625 11.925781 18.753906 11.652344 18.753906 L 4.414062 18.753906 C 4.140625 18.753906 3.90625 18.65625 3.710938 18.464844 C 3.511719 18.277344 3.40625 18.042969 3.394531 17.765625 L 2.789062 5.15625 L 13.277344 5.15625 Z M 14.542969 4.117188 C 14.542969 4.214844 14.507812 4.296875 14.441406 4.363281 C 14.375 4.429688 14.292969 4.464844 14.199219 4.464844 L 1.867188 4.464844 C 1.773438 4.464844 1.691406 4.429688 1.625 4.363281 C 1.558594 4.296875 1.527344 4.214844 1.527344 4.117188 L 1.527344 3.359375 C 1.527344 3.261719 1.558594 3.183594 1.625 3.113281 C 1.691406 3.046875 1.773438 3.011719 1.867188 3.011719 L 14.199219 3.011719 C 14.292969 3.011719 14.375 3.046875 14.441406 3.113281 C 14.507812 3.183594 14.542969 3.261719 14.542969 3.359375 Z M 14.542969 4.117188 " fill-opacity="1" fill-rule="nonzero"/></g><path fill="#000000" d="M 8.035156 15.871094 C 8.128906 15.871094 8.207031 15.839844 8.273438 15.769531 C 8.339844 15.703125 8.375 15.621094 8.375 15.527344 L 8.375 8.382812 C 8.375 8.285156 8.339844 8.207031 8.273438 8.136719 C 8.207031 8.070312 8.128906 8.035156 8.035156 8.035156 C 7.9375 8.035156 7.859375 8.070312 7.792969 8.136719 C 7.726562 8.207031 7.691406 8.285156 7.691406 8.382812 L 7.691406 15.527344 C 7.691406 15.621094 7.726562 15.703125 7.792969 15.769531 C 7.859375 15.839844 7.9375 15.871094 8.035156 15.871094 Z M 8.035156 15.871094 " fill-opacity="1" fill-rule="nonzero"/><path fill="#000000" d="M 10.765625 15.871094 C 10.859375 15.871094 10.941406 15.839844 11.007812 15.769531 C 11.074219 15.703125 11.105469 15.621094 11.105469 15.527344 L 11.105469 8.382812 C 11.105469 8.285156 11.074219 8.207031 11.007812 8.136719 C 10.941406 8.070312 10.859375 8.035156 10.765625 8.035156 C 10.671875 8.035156 10.589844 8.070312 10.523438 8.136719 C 10.457031 8.207031 10.421875 8.285156 10.421875 8.382812 L 10.421875 15.527344 C 10.421875 15.621094 10.457031 15.703125 10.523438 15.769531 C 10.589844 15.839844 10.671875 15.871094 10.765625 15.871094 Z M 10.765625 15.871094 " fill-opacity="1" fill-rule="nonzero"/><path fill="#000000" d="M 5.300781 15.871094 C 5.394531 15.871094 5.476562 15.839844 5.542969 15.769531 C 5.609375 15.703125 5.644531 15.621094 5.644531 15.527344 L 5.644531 8.382812 C 5.644531 8.285156 5.609375 8.207031 5.542969 8.136719 C 5.476562 8.070312 5.394531 8.035156 5.300781 8.035156 C 5.207031 8.035156 5.128906 8.070312 5.058594 8.136719 C 4.992188 8.207031 4.960938 8.285156 4.960938 8.382812 L 4.960938 15.527344 C 4.960938 15.621094 4.992188 15.703125 5.058594 15.769531 C 5.128906 15.839844 5.207031 15.871094 5.300781 15.871094 Z M 5.300781 15.871094 " fill-opacity="1" fill-rule="nonzero"/></svg>