<svg xmlns="http://www.w3.org/2000/svg" xmlns:xlink="http://www.w3.org/1999/xlink" width="36" zoomAndPan="magnify" viewBox="0 0 26.88 26.249999" height="35" preserveAspectRatio="xMidYMid meet" version="1.0"><defs><clipPath id="1841138601"><path d="M 0.765625 2 L 24 2 L 24 24.792969 L 0.765625 24.792969 Z M 0.765625 2 " clip-rule="nonzero"/></clipPath><clipPath id="084896c124"><path d="M 19 0 L 25.554688 0 L 25.554688 7 L 19 7 Z M 19 0 " clip-rule="nonzero"/></clipPath></defs><g clip-path="url(#1841138601)"><path fill="#1d1d1f" d="M 21.867188 23.214844 L 2.683594 23.214844 L 2.683594 4.027344 L 14.195312 4.027344 L 14.195312 2.109375 L 2.683594 2.109375 C 1.625 2.109375 0.765625 2.96875 0.765625 4.027344 L 0.765625 23.214844 C 0.765625 24.273438 1.625 25.132812 2.683594 25.132812 L 21.867188 25.132812 C 22.929688 25.132812 23.789062 24.273438 23.789062 23.214844 L 23.789062 11.703125 L 21.867188 11.703125 Z M 21.867188 23.214844 " fill-opacity="1" fill-rule="nonzero"/></g><path fill="#1d1d1f" d="M 8.4375 17.488281 L 12.476562 17.488281 L 22.265625 7.703125 L 18.195312 3.632812 L 8.4375 13.390625 Z M 8.4375 17.488281 " fill-opacity="1" fill-rule="nonzero"/><g clip-path="url(#084896c124)"><path fill="#1d1d1f" d="M 25.144531 2.109375 L 23.789062 0.753906 C 23.039062 0.00390625 21.824219 0.00390625 21.074219 0.753906 L 19.554688 2.277344 L 23.621094 6.34375 L 25.144531 4.824219 C 25.894531 4.074219 25.894531 2.859375 25.144531 2.109375 Z M 25.144531 2.109375 " fill-opacity="1" fill-rule="nonzero"/></g></svg>