<svg xmlns="http://www.w3.org/2000/svg" xmlns:xlink="http://www.w3.org/1999/xlink" width="25" zoomAndPan="magnify" viewBox="0 0 23.25 19.499999" height="26" preserveAspectRatio="xMidYMid meet" version="1.0"><defs><clipPath id="999fdc007f"><path d="M 0 0.0625 L 20 0.0625 L 20 17 L 0 17 Z M 0 0.0625 " clip-rule="nonzero"/></clipPath><clipPath id="4245178d49"><path d="M 0 6 L 21.796875 6 L 21.796875 18.226562 L 0 18.226562 Z M 0 6 " clip-rule="nonzero"/></clipPath></defs><g clip-path="url(#999fdc007f)"><path fill="#000000" d="M 0.40625 16.828125 C 0.210938 16.828125 0.0546875 16.671875 0.0546875 16.472656 L 0.0546875 2.101562 C 0.0546875 1.023438 0.921875 0.140625 1.988281 0.140625 L 7.085938 0.140625 C 8.0625 0.140625 8.871094 0.878906 9.003906 1.832031 L 17.6875 1.832031 C 18.871094 1.832031 19.832031 2.804688 19.832031 4.003906 L 19.832031 6.480469 C 19.832031 6.675781 19.675781 6.835938 19.480469 6.835938 C 19.289062 6.835938 19.128906 6.675781 19.128906 6.480469 L 19.128906 4.003906 C 19.128906 3.199219 18.484375 2.542969 17.6875 2.542969 L 8.671875 2.542969 C 8.476562 2.542969 8.320312 2.382812 8.320312 2.1875 L 8.320312 2.101562 C 8.320312 1.414062 7.765625 0.855469 7.085938 0.855469 L 1.988281 0.855469 C 1.308594 0.855469 0.757812 1.414062 0.757812 2.101562 L 0.757812 16.472656 C 0.757812 16.671875 0.597656 16.828125 0.40625 16.828125 Z M 0.40625 16.828125 " fill-opacity="1" fill-rule="nonzero"/></g><g clip-path="url(#4245178d49)"><path fill="#000000" d="M 18.148438 18.148438 L 1.492188 18.148438 C 1.039062 18.148438 0.640625 17.964844 0.371094 17.636719 C 0.101562 17.308594 -0.00390625 16.859375 0.0820312 16.40625 L 1.738281 7.730469 C 1.910156 6.84375 2.765625 6.121094 3.648438 6.121094 L 20.304688 6.121094 C 20.757812 6.121094 21.160156 6.304688 21.429688 6.636719 C 21.695312 6.964844 21.800781 7.414062 21.714844 7.863281 L 20.058594 16.542969 C 19.886719 17.425781 19.03125 18.148438 18.148438 18.148438 Z M 3.648438 6.835938 C 3.09375 6.835938 2.535156 7.308594 2.429688 7.863281 L 0.773438 16.542969 C 0.726562 16.789062 0.777344 17.015625 0.914062 17.183594 C 1.046875 17.34375 1.25 17.433594 1.492188 17.433594 L 18.148438 17.433594 C 18.703125 17.433594 19.261719 16.964844 19.367188 16.40625 L 21.023438 7.730469 C 21.070312 7.484375 21.019531 7.253906 20.886719 7.089844 C 20.75 6.925781 20.546875 6.835938 20.304688 6.835938 Z M 3.648438 6.835938 " fill-opacity="1" fill-rule="nonzero"/></g><path fill="#000000" d="M 2.09375 8.101562 C 1.902344 8.101562 1.742188 7.941406 1.742188 7.746094 L 1.742188 4.421875 C 1.742188 4.09375 2.003906 3.828125 2.328125 3.828125 L 17.191406 3.828125 C 17.511719 3.828125 17.773438 4.09375 17.773438 4.421875 L 17.773438 6.480469 C 17.773438 6.675781 17.617188 6.835938 17.421875 6.835938 C 17.226562 6.835938 17.070312 6.675781 17.070312 6.480469 L 17.070312 4.542969 L 2.445312 4.542969 L 2.445312 7.746094 C 2.445312 7.941406 2.289062 8.101562 2.09375 8.101562 Z M 2.09375 8.101562 " fill-opacity="1" fill-rule="nonzero"/></svg>