<svg xmlns="http://www.w3.org/2000/svg" xmlns:xlink="http://www.w3.org/1999/xlink" width="64" zoomAndPan="magnify" viewBox="0 0 63 62.999997" height="84" preserveAspectRatio="xMidYMid meet" version="1.0"><path fill="#000000" d="M 31.472656 -0.0195312 C 14.078125 -0.0195312 -0.0195312 14.082031 -0.0195312 31.472656 C -0.0195312 48.863281 14.078125 62.964844 31.472656 62.964844 C 48.863281 62.964844 62.964844 48.863281 62.964844 31.472656 C 62.964844 14.082031 48.863281 -0.0195312 31.472656 -0.0195312 Z M 23.277344 17.085938 L 29.9375 10.429688 C 30.371094 9.996094 30.941406 9.777344 31.511719 9.777344 C 31.515625 9.777344 31.523438 9.777344 31.527344 9.777344 C 31.535156 9.777344 31.539062 9.777344 31.542969 9.777344 C 32.113281 9.777344 32.683594 9.996094 33.121094 10.429688 L 39.777344 17.085938 C 40.648438 17.957031 40.648438 19.371094 39.777344 20.242188 C 39.34375 20.675781 38.769531 20.894531 38.203125 20.894531 C 37.628906 20.894531 37.058594 20.675781 36.625 20.242188 L 33.683594 17.296875 L 33.683594 29.242188 C 33.683594 30.476562 32.683594 31.472656 31.453125 31.472656 C 30.21875 31.472656 29.222656 30.476562 29.222656 29.242188 L 29.222656 17.449219 L 26.429688 20.242188 C 25.996094 20.675781 25.425781 20.894531 24.855469 20.894531 C 24.285156 20.894531 23.714844 20.675781 23.277344 20.242188 C 22.40625 19.371094 22.40625 17.957031 23.277344 17.085938 Z M 48.597656 43.925781 C 48.597656 46.9375 45.648438 49.292969 41.878906 49.292969 L 21.066406 49.292969 C 17.300781 49.292969 14.347656 46.9375 14.347656 43.925781 L 14.347656 29.4375 C 14.347656 26.429688 17.300781 24.070312 21.066406 24.070312 L 23.878906 24.070312 C 24.195312 24.128906 24.523438 24.160156 24.855469 24.160156 C 25.183594 24.160156 25.507812 24.128906 25.828125 24.070312 L 25.957031 24.070312 L 25.957031 28.425781 L 21.066406 28.425781 C 19.542969 28.425781 18.703125 29.1875 18.703125 29.4375 L 18.703125 43.925781 C 18.703125 44.179688 19.542969 44.9375 21.066406 44.9375 L 41.878906 44.9375 C 43.40625 44.9375 44.242188 44.175781 44.242188 43.925781 L 44.242188 29.4375 C 44.242188 29.1875 43.40625 28.425781 41.878906 28.425781 L 36.949219 28.425781 L 36.949219 24.070312 L 37.25 24.070312 C 37.5625 24.125 37.878906 24.160156 38.203125 24.160156 C 38.53125 24.160156 38.859375 24.128906 39.179688 24.070312 L 41.878906 24.070312 C 45.648438 24.070312 48.597656 26.429688 48.597656 29.4375 Z M 48.597656 43.925781 " fill-opacity="1" fill-rule="nonzero"/></svg>