<svg xmlns="http://www.w3.org/2000/svg" xmlns:xlink="http://www.w3.org/1999/xlink" width="33" zoomAndPan="magnify" viewBox="0 0 24.75 24.749999" height="33" preserveAspectRatio="xMidYMid meet" version="1.0"><defs><clipPath id="13bd75f6e7"><path d="M 0 0 L 23.761719 0 L 23.761719 23.761719 L 0 23.761719 Z M 0 0 " clip-rule="nonzero"/></clipPath></defs><g clip-path="url(#13bd75f6e7)"><path fill="#1d1d1f" d="M 11.933594 0 C 18.523438 0 23.863281 5.34375 23.863281 11.933594 C 23.863281 18.523438 18.523438 23.863281 11.933594 23.863281 C 5.34375 23.863281 0 18.523438 0 11.933594 C 0 5.34375 5.34375 0 11.933594 0 Z M 11.933594 9.179688 C 10.414062 9.179688 9.179688 10.414062 9.179688 11.933594 C 9.179688 13.449219 10.414062 14.6875 11.933594 14.6875 C 13.449219 14.6875 14.6875 13.449219 14.6875 11.933594 C 14.6875 10.414062 13.449219 9.179688 11.933594 9.179688 Z M 11.933594 15.851562 C 14.09375 15.851562 15.851562 14.09375 15.851562 11.933594 C 15.851562 9.769531 14.09375 8.011719 11.933594 8.011719 C 9.773438 8.011719 8.011719 9.769531 8.011719 11.933594 C 8.011719 14.09375 9.773438 15.851562 11.933594 15.851562 Z M 3.960938 11.277344 C 3.714844 11.699219 3.714844 12.164062 3.960938 12.585938 C 5.789062 15.691406 8.769531 17.542969 11.933594 17.542969 C 15.097656 17.542969 18.078125 15.691406 19.902344 12.585938 C 20.152344 12.164062 20.152344 11.699219 19.902344 11.277344 C 18.078125 8.171875 15.097656 6.320312 11.933594 6.320312 C 8.769531 6.320312 5.789062 8.171875 3.960938 11.277344 Z M 3.960938 11.277344 " fill-opacity="1" fill-rule="evenodd"/></g></svg>